<?xml version="1.0" encoding="UTF-8" standalone="no"?>
<!DOCTYPE svg PUBLIC "-//W3C//DTD SVG 1.1//EN" "http://www.w3.org/Graphics/SVG/1.1/DTD/svg11.dtd">
<svg version="1.1" xmlns="http://www.w3.org/2000/svg" xmlns:xlink="http://www.w3.org/1999/xlink" preserveAspectRatio="xMidYMid meet" viewBox="-1 -0.9999999999998521 645.8394961200934 541.0240656162013" width="597.59" height="500"><defs><path d="M152.41 436.4C143.57 436.4 136.2 429.24 136.2 420.19C136.2 389.86 136.2 147.18 136.2 116.85C136.2 108.01 143.36 100.64 152.41 100.64C159.29 100.64 214.36 100.64 221.24 100.64C230.09 100.64 237.45 107.8 237.45 116.85C237.45 147.18 237.45 389.86 237.45 420.19C237.24 429.03 230.09 436.4 221.24 436.4C207.48 436.4 159.29 436.4 152.41 436.4Z" id="aGvKJbrr3"></path><linearGradient id="gradienta7bMba4N9" gradientUnits="userSpaceOnUse" x1="82.42" y1="164.11" x2="291.27" y2="372.96"><stop style="stop-color: #ffffff;stop-opacity: 0.2" offset="0%"></stop><stop style="stop-color: #ffffff;stop-opacity: 0" offset="100%"></stop></linearGradient><path d="M420.6 436.4C411.75 436.4 404.39 429.24 404.39 420.19C404.39 389.86 404.39 147.18 404.39 116.85C404.39 108.22 411.54 100.64 420.6 100.64C427.44 100.64 482.17 100.64 489.01 100.64C497.85 100.64 505.22 107.8 505.22 116.85C505.22 147.18 505.22 389.86 505.22 420.19C505.22 429.03 498.06 436.4 489.01 436.4C475.33 436.4 427.44 436.4 420.6 436.4Z" id="adHB8LpWo"></path><path d="M503.54 116.85C503.54 108.85 497.22 101.69 488.17 100.85C498.06 100.85 505.22 108.01 505.01 116.85C505.01 137.07 505.01 238.19 505.01 420.19L503.54 420.19C503.54 238.19 503.54 137.07 503.54 116.85Z" id="c2t78O7Xe"></path><path d="M404.6 421.03C404.6 239.03 404.6 137.91 404.6 117.69C404.39 111.8 406.91 107.38 410.28 104.64C412.81 102.54 416.39 101.06 419.33 100.85C426.38 100.85 482.8 100.85 489.85 100.85C494.06 100.85 499.33 103.38 502.48 108.01C504.17 110.53 505.22 113.9 505.22 117.69C505.22 109.27 498.27 102.32 489.85 102.32C483.01 102.32 428.28 102.32 421.44 102.32C416.17 102.32 411.75 104.43 409.23 108.01C407.75 109.9 406.28 112.64 406.07 115.38C405.86 117.9 405.86 120.64 405.86 121.48C405.87 141.45 405.94 241.3 406.07 421.03L404.6 421.03Z" id="ad91xKfhT"></path><path d="M154.09 435.14C145.25 435.14 136.62 429.24 136.62 420.4C136.62 390.05 136.62 147.2 136.62 116.85C136.62 108.01 143.78 100.64 152.83 100.64C159.67 100.64 214.4 100.64 221.24 100.64C230.09 100.64 237.45 107.8 237.45 116.85C237.45 147.18 237.45 389.86 237.45 420.19C237.24 429.03 230.09 436.4 221.24 436.4C207.81 436.15 160.81 435.26 154.09 435.14Z" id="j1RRRVzPaa"></path><path d="M273.66 227.58C353.11 347.19 397.24 413.64 406.07 426.93C410.28 434.51 415.12 436.19 421.65 436.19C428.41 436.19 482.46 436.19 489.22 436.19C506.69 436.19 507.54 414.93 504.8 410.09C491.35 390.13 383.74 230.48 370.28 210.53C366.49 204.63 361.23 201.26 354.71 201.26" id="chqvAWZHP"></path><path d="M406.28 427.56C400.64 419.06 372.43 376.53 321.66 299.99L274.29 228L275.56 227.16L407.33 426.3C407.59 426.8 407.73 427.08 407.75 427.14C411.96 434.51 416.81 436.4 422.91 436.4C416.39 436.4 410.7 435.35 406.28 427.56Z" id="b8H5TZzAh"></path><path d="M237.24 266.73L236.61 266.73L237.03 116.01L237.24 115.8L237.24 266.73Z" id="cKJixvMvx"></path><path d="M136.62 415.56C136.62 236.59 136.62 137.16 136.62 117.27C136.62 116.43 136.62 115.59 136.83 114.74C137.46 110.11 139.99 106.32 143.36 103.8C145.88 101.9 149.25 100.85 152.62 100.85C159.54 100.85 214.95 100.85 221.88 100.85C226.51 100.85 230.93 103.38 233.66 106.75C235.98 109.48 237.24 113.06 237.24 116.01C237.2 116.01 236.86 116.01 236.82 116.01C236.82 110.53 230.51 102.11 221.67 102.11C214.76 102.11 159.52 102.11 152.62 102.11C147.99 102.11 143.99 104.22 141.25 107.59C139.99 109.27 137.25 113.27 137.25 118.95C137.31 138.73 137.59 237.6 138.09 415.56L136.62 415.56Z" id="aHEW6U3L"></path><path d="M421.65 436.4C415.12 436.4 410.7 435.14 406.07 427.14C406.2 427.05 407.21 426.38 407.33 426.3C411.54 433.66 415.54 434.72 421.44 434.72C428.17 434.72 482.06 434.72 488.8 434.72C494.69 434.72 498.69 432.61 501.43 427.77C505.22 421.24 504.8 413.88 503.33 411.35C494.33 398 449.35 331.27 368.39 211.16L369.65 210.32C450.74 330.43 495.79 397.16 504.8 410.51C506.69 413.88 505.22 425.24 502.9 428.61C500.59 432.4 497.01 436.4 489.01 436.4C475.54 436.4 428.38 436.4 421.65 436.4Z" id="bun0sRj9q"></path><path d="M153.67 436.4C139.57 436.4 132.83 422.93 138.09 410.3C151.65 390.34 260.1 230.69 273.66 210.74C277.45 204.84 282.71 201.47 289.24 201.47C295.81 201.47 348.35 201.47 354.92 201.47C368.39 201.47 376.39 215.79 370.07 227.58C356.87 247.51 251.28 406.99 238.08 426.93C234.3 432.82 229.03 436.4 222.51 436.4C208.74 436.4 160.55 436.4 153.67 436.4Z" id="btDNssxRU"></path><path d="M154.51 436.19C147.57 436.19 142.51 433.45 139.15 428.61C135.78 423.35 135.36 416.61 138.09 410.09C138.11 410.07 138.18 410 138.3 409.88C219.52 290.27 264.64 223.82 273.66 210.53C277.87 204.21 283.34 201.47 289.66 201.47C296.23 201.47 348.77 201.47 355.34 201.47C357.86 201.47 360.18 202.11 362.28 203.16C363.97 204 365.44 205.05 366.71 206.32C367.97 207.58 369.02 208.84 369.86 210.53C369.86 210.53 361.23 203.16 355.34 203.16C348.77 203.16 296.23 203.16 289.66 203.16C283.77 203.16 278.71 205.68 274.92 211.58C261.37 231.51 152.91 390.99 139.36 410.93C136.83 417.03 137.25 423.35 140.2 427.98C143.15 432.4 147.99 435.56 154.09 435.56C154.78 435.6 158.22 435.81 164.41 436.19C158.47 436.19 155.17 436.19 154.51 436.19Z" id="k1bOOCvJvG"></path><path d="M151.99 436.4C148.62 436.19 145.46 434.93 142.94 433.03C142.68 432.78 140.66 430.76 140.41 430.51C142.72 432.19 148.62 434.51 151.78 434.72C154.3 434.93 221.88 434.93 222.72 434.93C228.82 434.93 233.87 431.77 237.66 425.88C250.84 405.94 356.26 246.46 369.44 226.52C372.39 221.05 371.97 215.37 368.81 210.1C367.76 208.21 366.07 205.26 363.76 204C359.97 201.68 361.23 202.53 363.76 204C366.07 205.26 367.97 207.16 369.65 209.47C373.23 214.95 373.44 222.52 370.7 227.37C370.7 227.39 370.7 227.56 370.7 227.58C359.76 244.21 341.65 271.57 322.29 300.83C283.13 359.99 238.93 426.93 238.93 426.93C234.3 433.03 229.03 436.4 222.51 436.4C208.4 436.4 159.04 436.4 151.99 436.4Z" id="a1eJcAtqd9"></path><path d="M157.04 470.92C149.21 470.86 86.56 470.36 78.73 470.29C76.84 470.29 74.73 469.66 73.05 468.82C73.03 468.8 72.86 468.63 72.84 468.61C72.41 468.4 71.99 468.19 71.57 467.77C71.53 467.72 71.19 467.39 71.15 467.35C72.2 468.19 73.68 469.03 75.15 469.24C75.36 469.24 76.2 469.45 76.41 469.45C84.46 469.45 148.79 469.45 156.83 469.45C159.35 469.45 161.67 470.29 163.35 471.56C164.62 472.61 165.88 473.87 166.51 475.56C167.56 477.24 167.99 478.5 167.99 481.03C167.99 475.13 162.72 470.92 157.04 470.92ZM157.46 0.02C162.51 0.02 168.2 4.23 168.2 10.54C168.2 5.07 161.88 1.28 157.46 1.28C142.79 1.28 25.41 1.28 10.74 1.28C10.53 1.28 10.31 1.28 9.89 1.49C9.7 1.39 8.19 0.54 8 0.44C8.63 0.23 9.47 0.02 10.74 0.02C40.08 0.02 142.79 0.02 157.46 0.02Z" id="b1cAMIS3Xn"></path><path d="M573.85 77.7C573.87 115.78 574.03 420.42 574.06 458.5C574.06 462.08 573 465.45 570.69 467.77C568.37 470.08 565 471.35 561.21 471.35C553.43 471.35 491.12 471.35 483.33 471.35C477.85 471.35 473.85 475.35 473.85 480.61C473.85 485.09 473.85 520.96 473.85 525.45C473.85 527.97 474.49 531.34 476.59 533.45C479.12 535.97 483.12 536.81 483.12 536.81C482.48 536.81 481.85 536.81 481.43 536.6C475.54 535.55 472.17 531.13 472.17 525.45C472.17 520.96 472.17 485.09 472.17 480.61C472.17 474.29 476.8 469.66 483.12 469.66C490.91 469.66 553.22 469.66 561 469.66C564.37 469.66 567.32 468.61 569.42 466.5C571.53 464.4 572.58 461.45 572.37 458.29C572.37 420.21 572.37 115.57 572.37 77.48C572.58 72.22 567.74 67.59 562.48 67.59C568.79 67.59 573.85 71.38 573.85 77.7ZM483.33 66.12L562.48 66.12M483.33 67.59C476.38 67.59 472.17 62.54 472.17 56.22C472.17 51.61 472.17 14.73 472.17 10.12C472.17 5.28 476.59 0.02 482.91 0.02C483.12 0.02 603.11 0.23 628.79 0.02C632.16 0.02 634.68 1.91 634.68 1.91C634.54 1.88 633.84 1.74 632.58 1.49C542.9 1.49 493.08 1.49 483.12 1.49C477.85 1.7 474.06 5.07 474.06 10.33C474.02 14.94 473.69 51.82 473.64 56.43C473.64 61.91 477.64 67.8 483.12 67.8" id="acndD7NJj"></path><path d="M10.74 537.02C4.84 537.02 0 532.18 0 526.29C0 474.73 0 62.31 0 10.75C0 4.86 4.84 0.02 10.74 0.02C25.39 0.02 142.6 0.02 157.25 0.02C163.14 0.02 167.99 4.86 167.99 10.75C167.99 15.32 167.99 51.87 167.99 56.43C167.99 62.33 163.14 67.17 157.25 67.17C149.31 67.17 85.82 67.17 77.89 67.17C71.99 67.17 67.15 72.01 67.15 77.91C67.15 115.99 67.15 420.63 67.15 458.72C67.15 464.61 71.99 469.45 77.89 469.45C85.82 469.45 149.31 469.45 157.25 469.45C163.14 469.45 167.99 474.29 167.99 480.19C167.99 484.8 167.99 521.68 167.99 526.29C167.99 532.18 163.14 537.02 157.25 537.02C127.95 537.02 25.39 537.02 10.74 537.02Z" id="bOgC0krlp"></path><path d="M1.05 530.92C2.95 534.29 6.95 535.55 10.53 535.55C25.18 535.55 142.39 535.55 157.04 535.55C162.72 535.55 166.51 531.34 166.51 527.13C166.55 522.54 166.89 485.83 166.93 481.24C166.93 481.24 166.72 477.66 166.51 477.03C166.46 476.8 166.18 475.68 165.67 473.66C166.05 474.29 166.26 474.64 166.3 474.71C166.3 474.71 167.78 477.24 167.78 479.98C167.78 484.69 167.78 522.41 167.78 527.13C167.78 531.97 162.93 537.02 156.83 537.02C147.08 537.02 98.31 537.02 10.53 537.02C5.61 535.48 2.46 533.45 1.05 530.92ZM65.47 459.56C65.47 421.46 65.47 116.64 65.47 78.54C65.47 72.22 70.31 65.28 76.62 65.28C84.48 65.28 147.29 65.28 155.14 65.28C160.41 65.28 166.3 62.75 166.3 57.07C166.3 52.52 166.3 16.14 166.3 11.6C166.3 6.12 161.88 0.02 156.2 0.02C160.2 -0.19 163.56 1.49 165.67 4.44C167.14 6.33 167.99 8.86 167.78 11.6C167.78 16.12 167.78 52.33 167.78 56.85C167.78 56.85 167.78 57.49 167.56 58.33C167.35 59.8 166.72 61.28 165.88 62.54C164.83 64.01 163.35 65.28 161.88 66.12C159.99 67.17 157.46 67.38 154.93 67.17C147.17 67.17 85.02 67.17 77.26 67.17C75.36 67.17 73.89 67.8 72.41 68.64C68.84 70.75 66.73 74.54 66.94 78.75C66.94 116.83 66.94 421.48 66.94 459.56C66.94 461.87 67.99 463.77 69.26 465.24C71.15 467.77 74.1 469.24 76.84 469.45C74.1 469.45 65.47 465.87 65.47 459.56Z" id="dlJvxOVHM"></path><path d="M628.79 0.02C634.68 0.02 639.52 4.86 639.52 10.75C639.52 62.31 639.52 474.73 639.52 526.29C639.52 532.18 634.68 537.02 628.79 537.02C614.2 537.02 497.49 537.02 482.91 537.02C477.01 537.02 472.17 532.18 472.17 526.29C472.17 521.72 472.17 485.18 472.17 480.61C472.17 474.71 477.01 469.87 482.91 469.87C490.8 469.87 553.95 469.87 561.85 469.87C567.74 469.87 572.58 465.03 572.58 459.14C572.58 421.06 572.58 116.41 572.58 78.33C572.58 72.43 567.74 67.59 561.85 67.59C553.95 67.59 490.8 67.59 482.91 67.59C477.01 67.59 472.17 62.75 472.17 56.85C472.17 52.24 472.17 15.36 472.17 10.75C472.17 4.86 477.01 0.02 482.91 0.02C512.08 0.02 614.2 0.02 628.79 0.02Z" id="aRyWXr1sn"></path><path d="M637.84 526.29C637.84 474.8 637.84 62.88 637.84 11.39C637.84 7.39 635.52 2.33 632.16 0.86C635.73 2.12 638.47 5.07 639.1 9.07C639.31 9.91 639.31 10.75 639.31 11.6C639.31 63.09 639.31 475.01 639.31 526.5C639.52 530.71 636.79 534.71 632.16 536.39C635.73 534.71 637.84 530.08 637.84 526.29Z" id="a29EoN97ai"></path><path d="M628.58 537.02C614.24 537.02 499.56 537.02 485.22 537.02C483.33 537.02 481.85 537.02 480.38 536.81C479.33 536.6 477.64 535.97 476.38 534.92C476.34 534.88 476.13 534.67 475.75 534.29C475.5 534.03 475.36 533.89 475.33 533.87C475.33 533.87 478.06 535.13 479.33 535.34C481.85 535.76 483.33 535.55 485.22 535.55C485.31 535.55 485.73 535.55 486.48 535.55C571.99 535.68 619.5 535.75 629 535.76C631.1 535.76 634.89 534.92 636.58 533.66C636.51 533.72 636.01 534.22 635.95 534.29C634.89 535.34 633.42 536.18 631.74 536.6C631.52 536.6 630.68 536.81 630.26 536.81C629.84 536.81 629 537.02 628.58 537.02Z" id="b3tGkzw9xQ"></path><path d="M483.33 66.12C491.22 66.12 554.37 66.12 562.27 66.12C568.58 66.12 572.37 70.75 572.37 77.06C571.95 72.22 567.74 67.38 562.27 67.38C554.37 67.38 491.22 67.38 483.33 67.38C477.01 67.38 472.59 62.54 472.17 57.91C472.17 57.8 472.17 57.23 472.17 56.22C475.96 62.82 479.68 66.12 483.33 66.12Z" id="d3lYCwQmYh"></path><path d="M9.89 1.49C4.63 2.33 1.47 6.96 1.47 10.75C1.47 62.24 1.47 474.17 1.47 525.66C1.47 529.66 3.79 534.71 7.16 536.18C3.58 534.92 0.84 531.97 0.21 527.97C0 527.55 0 526.71 0 525.87C0 474.36 0 62.26 0 10.75C0 6.33 3.16 1.49 8 0.44C8.38 0.65 9.7 1.39 9.89 1.49Z" id="h1KQneylW9"></path><path d="M13.05 537.02C7.16 537.02 2.32 532.18 2.32 526.29C2.32 474.73 2.32 62.31 2.32 10.75C2.32 4.86 7.16 0.02 13.05 0.02C27.7 0.02 144.91 0.02 159.57 0.02C165.46 0.02 170.3 4.86 170.3 10.75C170.3 15.32 170.3 51.87 170.3 56.43C170.3 62.33 165.46 67.17 159.57 67.17C151.63 67.17 88.14 67.17 80.2 67.17C74.31 67.17 69.47 72.01 69.47 77.91C69.47 115.99 69.47 420.63 69.47 458.72C69.47 464.61 74.31 469.45 80.2 469.45C88.14 469.45 151.63 469.45 159.57 469.45C165.46 469.45 170.3 474.29 170.3 480.19C170.3 484.8 170.3 521.68 170.3 526.29C170.3 532.18 165.46 537.02 159.57 537.02C130.26 537.02 27.7 537.02 13.05 537.02Z" id="h1ARxVmdcH"></path><linearGradient id="gradientg8ZaN2GY1S" gradientUnits="userSpaceOnUse" x1="2.35" y1="268.55" x2="170.29" y2="268.55"><stop style="stop-color: #ffffff;stop-opacity: 0.1" offset="0%"></stop><stop style="stop-color: #ffffff;stop-opacity: 0" offset="100%"></stop></linearGradient><path d="M3.37 530.92C5.26 534.29 9.26 535.55 12.84 535.55C27.49 535.55 144.7 535.55 159.35 535.55C165.04 535.55 168.83 531.34 168.83 527.13C168.87 522.54 169.21 485.83 169.25 481.24C169.25 481.24 169.04 477.66 168.83 477.03C168.77 476.8 168.49 475.68 167.99 473.66C168.36 474.29 168.57 474.64 168.62 474.71C168.62 474.71 170.09 477.24 170.09 479.98C170.09 484.69 170.09 522.41 170.09 527.13C170.09 531.97 165.25 537.02 159.14 537.02C149.39 537.02 100.62 537.02 12.84 537.02C7.93 535.48 4.77 533.45 3.37 530.92Z" id="b1w966a7uR"></path><linearGradient id="gradientaoyHexg75" gradientUnits="userSpaceOnUse" x1="3.38" y1="505.33" x2="170.29" y2="505.33"><stop style="stop-color: #ffffff;stop-opacity: 0.1" offset="0%"></stop><stop style="stop-color: #ffffff;stop-opacity: 0" offset="100%"></stop></linearGradient><path d="M67.78 459.56C67.78 421.48 67.78 116.83 67.78 78.75C67.78 72.43 72.63 65.49 78.94 65.49C86.79 65.49 149.61 65.49 157.46 65.49C162.72 65.49 168.62 62.96 168.62 57.28C168.62 52.71 168.62 16.16 168.62 11.6C168.62 6.12 164.2 0.02 158.72 0.02C162.72 -0.19 166.09 1.49 168.2 4.44C169.67 6.33 170.51 8.86 170.3 11.6C170.3 16.12 170.3 52.33 170.3 56.85C170.3 56.85 170.3 57.49 170.09 58.33C169.88 59.8 169.25 61.28 168.41 62.54C167.35 64.01 165.88 65.28 164.41 66.12C162.51 67.17 159.99 67.38 157.46 67.17C149.69 67.17 87.55 67.17 79.78 67.17C77.89 67.17 76.41 67.8 74.94 68.64C71.36 70.75 69.26 74.54 69.47 78.75C69.47 116.83 69.47 421.48 69.47 459.56C69.47 461.87 70.52 463.77 71.78 465.24C73.47 467.77 76.41 469.24 79.15 469.45C76.41 469.45 67.78 465.87 67.78 459.56Z" id="cSGO0Zo5"></path><linearGradient id="gradientd5pb6xSAQw" gradientUnits="userSpaceOnUse" x1="67.77" y1="234.78" x2="170.29" y2="234.78"><stop style="stop-color: #ffffff;stop-opacity: 0.1" offset="0%"></stop><stop style="stop-color: #ffffff;stop-opacity: 0" offset="100%"></stop></linearGradient><path d="M631.1 0.02C637 0.02 641.84 4.86 641.84 10.75C641.84 62.31 641.84 474.73 641.84 526.29C641.84 532.18 637 537.02 631.1 537.02C616.52 537.02 499.81 537.02 485.22 537.02C479.33 537.02 474.49 532.18 474.49 526.29C474.49 521.72 474.49 485.18 474.49 480.61C474.49 474.71 479.33 469.87 485.22 469.87C493.12 469.87 556.27 469.87 564.16 469.87C570.06 469.87 574.9 465.03 574.9 459.14C574.9 421.06 574.9 116.41 574.9 78.33C574.9 72.43 570.06 67.59 564.16 67.59C556.27 67.59 493.12 67.59 485.22 67.59C479.33 67.59 474.49 62.75 474.49 56.85C474.49 52.24 474.49 15.36 474.49 10.75C474.7 4.86 479.33 0.02 485.22 0.02C514.4 0.02 616.52 0.02 631.1 0.02Z" id="c2T8nnhav5"></path><linearGradient id="gradienta3TpgzvNfE" gradientUnits="userSpaceOnUse" x1="474.59" y1="268.55" x2="641.79" y2="268.55"><stop style="stop-color: #ffffff;stop-opacity: 0.1" offset="0%"></stop><stop style="stop-color: #ffffff;stop-opacity: 0" offset="100%"></stop></linearGradient><path d="M640.16 526.29C640.16 474.8 640.16 62.88 640.16 11.39C640.16 7.39 637.84 2.33 634.47 0.86C638.05 2.12 640.79 5.07 641.42 9.07C641.63 9.91 641.63 10.75 641.63 11.6C641.63 63.09 641.63 475.01 641.63 526.5C641.84 530.71 639.1 534.71 634.47 536.39C638.05 534.71 640.16 530.08 640.16 526.29Z" id="e1GIkASriU"></path><linearGradient id="gradienta26GGBlswI" gradientUnits="userSpaceOnUse" x1="634.52" y1="268.58" x2="641.79" y2="268.58"><stop style="stop-color: #ffffff;stop-opacity: 0.1" offset="0%"></stop><stop style="stop-color: #ffffff;stop-opacity: 0" offset="100%"></stop></linearGradient><path d="M630.89 537.02C616.56 537.02 501.87 537.02 487.54 537.02C485.64 537.02 484.17 537.02 482.7 536.81C481.64 536.6 479.96 535.97 478.7 534.92C478.65 534.88 478.44 534.67 478.06 534.29C477.81 534.03 477.67 533.89 477.64 533.87C477.64 533.87 480.38 535.13 481.64 535.34C484.17 535.76 485.64 535.55 487.54 535.55C487.62 535.55 488.04 535.55 488.8 535.55C574.31 535.68 621.81 535.75 631.31 535.76C633.42 535.76 637.21 534.92 638.89 533.66C638.83 533.72 638.32 534.22 638.26 534.29C637.21 535.34 635.73 536.18 634.05 536.6C633.84 536.6 633 536.81 632.58 536.81C632.16 536.81 631.31 537.02 630.89 537.02Z" id="b339wJmhgQ"></path><linearGradient id="gradientb2NDrpXde" gradientUnits="userSpaceOnUse" x1="477.65" y1="535.35" x2="638.86" y2="535.35"><stop style="stop-color: #ffffff;stop-opacity: 0.1" offset="0%"></stop><stop style="stop-color: #ffffff;stop-opacity: 0" offset="100%"></stop></linearGradient></defs><g><g><use xlink:href="#aGvKJbrr3" opacity="1" fill="url(#gradienta7bMba4N9)"></use><g><use xlink:href="#aGvKJbrr3" opacity="1" fill-opacity="0" stroke="#000000" stroke-width="1" stroke-opacity="0"></use></g></g><g><use xlink:href="#adHB8LpWo" opacity="1" fill="#00bfa5" fill-opacity="1"></use><g><use xlink:href="#adHB8LpWo" opacity="1" fill-opacity="0" stroke="#000000" stroke-width="1" stroke-opacity="0"></use></g></g><g><use xlink:href="#c2t78O7Xe" opacity="1" fill="#04a88c" fill-opacity="1"></use><g><use xlink:href="#c2t78O7Xe" opacity="1" fill-opacity="0" stroke="#000000" stroke-width="1" stroke-opacity="0"></use></g></g><g><use xlink:href="#ad91xKfhT" opacity="1" fill="#1ce9b6" fill-opacity="1"></use><g><use xlink:href="#ad91xKfhT" opacity="1" fill-opacity="0" stroke="#000000" stroke-width="1" stroke-opacity="0"></use></g></g><g><use xlink:href="#j1RRRVzPaa" opacity="1" fill="#4285f4" fill-opacity="1"></use><g><use xlink:href="#j1RRRVzPaa" opacity="1" fill-opacity="0" stroke="#000000" stroke-width="1" stroke-opacity="0"></use></g></g><g><use xlink:href="#chqvAWZHP" opacity="1" fill="#1ce9b6" fill-opacity="1"></use><g><use xlink:href="#chqvAWZHP" opacity="1" fill-opacity="0" stroke="#000000" stroke-width="1" stroke-opacity="0"></use></g></g><g><use xlink:href="#b8H5TZzAh" opacity="1" fill="#46f7c5" fill-opacity="1"></use><g><use xlink:href="#b8H5TZzAh" opacity="1" fill-opacity="0" stroke="#000000" stroke-width="1" stroke-opacity="0"></use></g></g><g><use xlink:href="#cKJixvMvx" opacity="1" fill="#2a6fd3" fill-opacity="1"></use><g><use xlink:href="#cKJixvMvx" opacity="1" fill-opacity="0" stroke="#000000" stroke-width="1" stroke-opacity="0"></use></g></g><g><use xlink:href="#aHEW6U3L" opacity="1" fill="#4fc3f7" fill-opacity="1"></use><g><use xlink:href="#aHEW6U3L" opacity="1" fill-opacity="0" stroke="#000000" stroke-width="1" stroke-opacity="0"></use></g></g><g><use xlink:href="#bun0sRj9q" opacity="1" fill="#24ce9e" fill-opacity="1"></use><g><use xlink:href="#bun0sRj9q" opacity="1" fill-opacity="0" stroke="#000000" stroke-width="1" stroke-opacity="0"></use></g></g><g><use xlink:href="#btDNssxRU" opacity="1" fill="#4fc3f7" fill-opacity="1"></use><g><use xlink:href="#btDNssxRU" opacity="1" fill-opacity="0" stroke="#000000" stroke-width="1" stroke-opacity="0"></use></g></g><g><use xlink:href="#k1bOOCvJvG" opacity="1" fill="#6ed2f4" fill-opacity="1"></use><g><use xlink:href="#k1bOOCvJvG" opacity="1" fill-opacity="0" stroke="#000000" stroke-width="1" stroke-opacity="0"></use></g></g><g><use xlink:href="#a1eJcAtqd9" opacity="1" fill="#30a5ce" fill-opacity="1"></use><g><use xlink:href="#a1eJcAtqd9" opacity="1" fill-opacity="0" stroke="#000000" stroke-width="1" stroke-opacity="0"></use></g></g><g><use xlink:href="#b1cAMIS3Xn" opacity="1" fill="#4fc3f7" fill-opacity="1"></use><g><use xlink:href="#b1cAMIS3Xn" opacity="1" fill-opacity="0" stroke="#000000" stroke-width="1" stroke-opacity="0"></use></g></g><g><use xlink:href="#acndD7NJj" opacity="1" fill="#1ce9b6" fill-opacity="1"></use><g><use xlink:href="#acndD7NJj" opacity="1" fill-opacity="0" stroke="#000000" stroke-width="1" stroke-opacity="0"></use></g></g><g><use xlink:href="#bOgC0krlp" opacity="1" fill="#4285f4" fill-opacity="1"></use><g><use xlink:href="#bOgC0krlp" opacity="1" fill-opacity="0" stroke="#000000" stroke-width="1" stroke-opacity="0"></use></g></g><g><use xlink:href="#dlJvxOVHM" opacity="1" fill="#2a6fd3" fill-opacity="1"></use><g><use xlink:href="#dlJvxOVHM" opacity="1" fill-opacity="0" stroke="#000000" stroke-width="1" stroke-opacity="0"></use></g></g><g><use xlink:href="#aRyWXr1sn" opacity="1" fill="#00bfa5" fill-opacity="1"></use><g><use xlink:href="#aRyWXr1sn" opacity="1" fill-opacity="0" stroke="#000000" stroke-width="1" stroke-opacity="0"></use></g></g><g><use xlink:href="#a29EoN97ai" opacity="1" fill="#04a88c" fill-opacity="1"></use><g><use xlink:href="#a29EoN97ai" opacity="1" fill-opacity="0" stroke="#000000" stroke-width="1" stroke-opacity="0"></use></g></g><g><use xlink:href="#b3tGkzw9xQ" opacity="1" fill="#04a88c" fill-opacity="1"></use><g><use xlink:href="#b3tGkzw9xQ" opacity="1" fill-opacity="0" stroke="#000000" stroke-width="1" stroke-opacity="0"></use></g></g><g><use xlink:href="#d3lYCwQmYh" opacity="1" fill="#04a88c" fill-opacity="1"></use><g><use xlink:href="#d3lYCwQmYh" opacity="1" fill-opacity="0" stroke="#000000" stroke-width="1" stroke-opacity="0"></use></g></g><g><use xlink:href="#h1KQneylW9" opacity="1" fill="#4fc3f7" fill-opacity="1"></use><g><use xlink:href="#h1KQneylW9" opacity="1" fill-opacity="0" stroke="#000000" stroke-width="1" stroke-opacity="0"></use></g></g><g><use xlink:href="#h1ARxVmdcH" opacity="1" fill="url(#gradientg8ZaN2GY1S)"></use><g><use xlink:href="#h1ARxVmdcH" opacity="1" fill-opacity="0" stroke="#000000" stroke-width="1" stroke-opacity="0"></use></g></g><g><use xlink:href="#b1w966a7uR" opacity="1" fill="url(#gradientaoyHexg75)"></use><g><use xlink:href="#b1w966a7uR" opacity="1" fill-opacity="0" stroke="#000000" stroke-width="1" stroke-opacity="0"></use></g></g><g><use xlink:href="#cSGO0Zo5" opacity="1" fill="url(#gradientd5pb6xSAQw)"></use><g><use xlink:href="#cSGO0Zo5" opacity="1" fill-opacity="0" stroke="#000000" stroke-width="1" stroke-opacity="0"></use></g></g><g><use xlink:href="#c2T8nnhav5" opacity="1" fill="url(#gradienta3TpgzvNfE)"></use><g><use xlink:href="#c2T8nnhav5" opacity="1" fill-opacity="0" stroke="#000000" stroke-width="1" stroke-opacity="0"></use></g></g><g><use xlink:href="#e1GIkASriU" opacity="1" fill="url(#gradienta26GGBlswI)"></use><g><use xlink:href="#e1GIkASriU" opacity="1" fill-opacity="0" stroke="#000000" stroke-width="1" stroke-opacity="0"></use></g></g><g><use xlink:href="#b339wJmhgQ" opacity="1" fill="url(#gradientb2NDrpXde)"></use><g><use xlink:href="#b339wJmhgQ" opacity="1" fill-opacity="0" stroke="#000000" stroke-width="1" stroke-opacity="0"></use></g></g></g></svg>